HIERARCHY
ROOT Hips
{
  OFFSET -7.32917 98.0342 0.274826
  CHANNELS 6 Xposition Yposition Zposition Zrotation Xrotation Yrotation
  JOINT ToSpine
  {
    OFFSET -2.69724 7.43032 -0.144315
    CHANNELS 3 Zrotation Xrotation Yrotation
    JOINT Spine
    {
      OFFSET -0.0310711 10.7595 1.96963
      CHANNELS 3 Zrotation Xrotation Yrotation
      JOINT Spine1
      {
        OFFSET 13.1342 3.43533 0.764692
        CHANNELS 3 Zrotation Xrotation Yrotation
        JOINT Neck
        {
          OFFSET 29.8703 7.82586 -0.130764
          CHANNELS 3 Zrotation Xrotation Yrotation
          JOINT Head
          {
            OFFSET 9.52751 0.295786 -0.907742
            CHANNELS 3 Zrotation Xrotation Yrotation
            End Site
            {
              OFFSET 16.4037 0.713936 2.7358
            }
          }
        }
        JOINT LeftShoulder
        {
          OFFSET 27.5574 4.95586 2.47156
          CHANNELS 3 Zrotation Xrotation Yrotation
          JOINT LeftArm
          {
            OFFSET 1.20734 -0.998971 20.1238
            CHANNELS 3 Zrotation Xrotation Yrotation
            JOINT LeftForeArm
            {
              OFFSET 26.8049 -0.0536703 -0.155908
              CHANNELS 3 Zrotation Xrotation Yrotation
              JOINT LeftHand
              {
                OFFSET 26.6817 0 0.320147
                CHANNELS 3 Zrotation Xrotation Yrotation
                End Site
                {
                  OFFSET 18.6119 0 0.382219
                }
              }
            }
          }
        }
        JOINT RightShoulder
        {
          OFFSET 27.5927 4.71444 -2.65209
          CHANNELS 3 Zrotation Xrotation Yrotation
          JOINT RightArm
          {
            OFFSET 2.83739 -1.17114 -18.7564
            CHANNELS 3 Zrotation Xrotation Yrotation
            JOINT RightForeArm
            {
              OFFSET 28.839 -0.0548439 1.22491
              CHANNELS 3 Zrotation Xrotation Yrotation
              JOINT RightHand
              {
                OFFSET 26.5114 0 -0.101894
                CHANNELS 3 Zrotation Xrotation Yrotation
                End Site
                {
                  OFFSET 18.2168 0 0
                }
              }
            }
          }
        }
      }
    }
  }
  JOINT LeftUpLeg
  {
    OFFSET -4.76168 -1.9167 -10.2353
    CHANNELS 3 Zrotation Xrotation Yrotation
    JOINT LeftLeg
    {
      OFFSET 2.55951 -42.0585 -8.02213
      CHANNELS 3 Zrotation Xrotation Yrotation
      JOINT LeftFoot
      {
        OFFSET 3.16357 -42.5282 -3.95426
        CHANNELS 3 Zrotation Xrotation Yrotation
        JOINT LeftToeBase
        {
          OFFSET 0.346054 -6.02161 12.8035
          CHANNELS 3 Zrotation Xrotation Yrotation
          End Site
          {
            OFFSET 0.134235 -1.35082 5.13018
          }
        }
      }
    }
  }
  JOINT RightUpLeg
  {
    OFFSET -4.94151 -1.41743 10.6446
    CHANNELS 3 Zrotation Xrotation Yrotation
    JOINT RightLeg
    {
      OFFSET -2.56294 -42.0364 -7.94377
      CHANNELS 3 Zrotation Xrotation Yrotation
      JOINT RightFoot
      {
        OFFSET -3.0952 -42.555 -4.02241
        CHANNELS 3 Zrotation Xrotation Yrotation
        JOINT RightToeBase
        {
          OFFSET -0.0828122 -6.13587 12.8035
          CHANNELS 3 Zrotation Xrotation Yrotation
          End Site
          {
            OFFSET -0.131328 -1.35082 5.13018
          }
        }
      }
    }
  }
}
MOTION
Frames:	15
Frame Time:	0.00833333
-7.32917 98.0342 0.274826 64.6829 -34.395 -15.1746 -70.1915 0 88.8779 62.3497 68.9056 27.0137 4.61353 20.8312 0.478978 -163.494 23.8029 175.364 -160.296 63.1036 -179.359 -0.952194 -17.5614 -37.8456 -63.6346 41.617 -93.8864 10.8138 24.6216 -27.9143 0.420957 0.000575282 0.35866 -2.18065 6.36915 48.4927 -58.3979 -30.0321 99.3008 3.61771 -13.8084 24.6869 0.58676 0.000331135 0.0646651 -53.6304 -1.67465 98.5934 -1.23807 20.3333 -12.2442 4.74021 -6.4321 -0.940161 0.487876 -1.51342 1.08764 -54.6215 2.83505 82.1183 1.84501 15.3867 5.18856 -5.46185 -5.42975 1.01834 -0.640145 4.0093 0.756701 
-7.33088 98.0335 0.268377 64.6597 -34.3803 -15.1971 -70.1915 0 88.8779 62.3144 68.895 27.0613 4.62598 20.8349 0.443472 -163.53 23.7999 175.338 -160.326 63.1008 -179.375 -0.950016 -17.5513 -37.8542 -63.5844 41.5976 -93.9254 10.8367 24.59 -27.9414 0.420957 0.000575281 0.35866 -2.17938 6.36048 48.5191 -58.4358 -30.0056 99.3195 3.59124 -13.8868 24.6527 0.58676 0.000331136 0.0646651 -53.5586 -1.69701 98.5878 -1.22862 20.4222 -12.4027 4.64745 -6.47662 -0.935158 0.382051 -1.44696 1.49913 -54.5899 2.83888 82.1451 1.82492 15.4033 5.26016 -5.45543 -5.48175 1.01938 -0.621065 4.10689 0.59749 
-7.33297 98.0324 0.261516 64.6438 -34.3656 -15.2126 -70.1915 0 88.8779 62.3022 68.8885 27.0837 4.62962 20.8377 0.413679 -163.547 23.7938 175.302 -160.324 63.0914 -179.414 -0.94786 -17.5404 -37.8658 -63.5006 41.5849 -93.9835 10.8125 24.4562 -27.9568 0.420957 0.000575281 0.35866 -2.17887 6.35427 48.5441 -58.4819 -29.9776 99.3266 3.57587 -13.9652 24.6258 0.58676 0.000331136 0.0646651 -53.5 -1.71667 98.5832 -1.21983 20.4983 -12.5525 4.56733 -6.50447 -0.93042 0.295262 -1.41006 1.87802 -54.5619 2.84337 82.1686 1.80534 15.4261 5.32461 -5.43491 -5.52862 1.01912 -0.595839 4.15788 0.440014 
-7.33429 98.032 0.255478 64.646 -34.3508 -15.2106 -70.1915 0 88.8779 62.3481 68.8922 27.0429 4.61122 20.8382 0.398174 -163.519 23.7799 175.242 -160.241 63.0653 -179.509 -0.945651 -17.5309 -37.8714 -63.3329 41.5889 -94.0892 10.6709 24.0671 -27.9439 0.420957 0.00057528 0.35866 -2.17683 6.34315 48.5719 -58.5486 -29.9458 99.3046 3.58842 -14.0432 24.6169 0.58676 0.000331136 0.0646651 -53.4742 -1.72963 98.5807 -1.21373 20.5426 -12.6799 4.5188 -6.49062 -0.926347 0.258353 -1.44711 2.17548 -54.5426 2.84963 82.1834 1.78706 15.4646 5.37116 -5.37913 -5.56268 1.01561 -0.556635 4.09245 0.286967 
-7.33371 98.0334 0.251497 64.6787 -34.3368 -15.1816 -70.1915 0 88.8779 62.5067 68.9166 26.8828 4.54891 20.8371 0.401996 -163.419 23.7527 175.14 -160.034 63.0115 -179.693 -0.943318 -17.5249 -37.8617 -63.0188 41.6159 -94.2753 10.3367 23.2462 -27.8916 0.420957 0.00057528 0.35866 -2.17097 6.31976 48.6067 -58.6324 -29.9065 99.2397 3.65476 -14.1137 24.6445 0.58676 0.000331135 0.0646651 -53.5004 -1.73381 98.5823 -1.21178 20.5406 -12.7871 4.50791 -6.41006 -0.922369 0.298949 -1.60954 2.38078 -54.5389 2.86052 82.1881 1.76706 15.5283 5.39722 -5.26493 -5.57903 1.00679 -0.493357 3.83446 0.129844 
-7.33109 98.0376 0.250957 64.7329 -34.3233 -15.1333 -70.1915 0 88.8779 62.7449 68.955 26.6383 4.45586 20.8348 0.419653 -163.268 23.7159 175.011 -159.739 62.9378 -179.939 -0.94108 -17.5255 -37.8281 -62.6009 41.6586 -94.5188 9.86875 22.1211 -27.8208 0.420957 0.000575279 0.35866 -2.1575 6.27177 48.657 -58.7288 -29.8617 99.1447 3.75893 -14.179 24.6975 0.58676 0.000331134 0.0646651 -53.5635 -1.73169 98.5868 -1.21299 20.5058 -12.8793 4.52422 -6.28224 -0.918505 0.395366 -1.86045 2.51928 -54.5461 2.87464 82.1853 1.746 15.6097 5.40842 -5.10943 -5.58273 0.994219 -0.414721 3.44034 -0.0295909 
-7.327 98.0439 0.252849 64.7874 -34.3087 -15.0815 -70.1915 0 88.8779 62.9652 68.9889 26.4089 4.3714 20.8294 0.443929 -163.112 23.6793 174.88 -159.43 62.8625 179.807 -0.938893 -17.5305 -37.7774 -62.1873 41.7066 -94.7647 9.39648 20.9939 -27.7574 0.420957 0.000575278 0.35866 -2.13862 6.20665 48.7183 -58.8486 -29.8178 99.0414 3.85499 -14.2535 24.743 0.58676 0.000331134 0.0646651 -53.6316 -1.72611 98.5909 -1.21573 20.4609 -12.9474 4.5619 -6.14886 -0.91603 0.503906 -2.11184 2.59619 -54.5526 2.88675 82.1769 1.73029 15.6932 5.40639 -4.9519 -5.58099 0.981325 -0.340265 3.03904 -0.1733 
-7.32128 98.0503 0.254812 64.8212 -34.2915 -15.0417 -70.1915 0 88.8779 63.0688 69 26.2955 4.33486 20.8194 0.467607 -162.997 23.6528 174.777 -159.176 62.804 179.597 -0.936305 -17.5347 -37.7243 -61.8862 41.7507 -94.9571 9.04624 20.1661 -27.7144 0.420957 0.000575278 0.35866 -2.12106 6.14669 48.7746 -59.0025 -29.7816 98.9514 3.89684 -14.3517 24.7476 0.58676 0.000331133 0.0646651 -53.6729 -1.7199 98.5912 -1.21816 20.4291 -12.9822 4.61515 -6.05162 -0.916214 0.580278 -2.27572 2.61666 -54.5467 2.89156 82.1644 1.72633 15.7635 5.39273 -4.83165 -5.58102 0.971536 -0.28773 2.7595 -0.283351 
-7.31381 98.0551 0.254487 64.8242 -34.2702 -15.0177 -70.1915 0 88.8779 63.0012 68.9759 26.351 4.36866 20.7992 0.49453 -162.94 23.6402 174.713 -158.988 62.7683 179.44 -0.932882 -17.5327 -37.6836 -61.7387 41.7949 -95.0782 8.85668 19.7386 -27.6864 0.420957 0.000575278 0.35866 -2.11173 6.11399 48.8101 -59.2374 -29.7508 98.8757 3.84367 -14.5093 24.6769 0.58676 0.000331133 0.0646651 -53.6771 -1.71058 98.5853 -1.21968 20.411 -12.961 4.68844 -5.99872 -0.919765 0.622081 -2.3312 2.53263 -54.5194 2.88465 82.1427 1.74385 15.819 5.3516 -4.77459 -5.58197 0.966902 -0.264559 2.63665 -0.33307 
-7.30371 98.0566 0.250999 64.8093 -34.2459 -15.0012 -70.1915 0 88.8779 62.8247 68.929 26.5128 4.44788 20.7715 0.526617 -162.915 23.636 174.672 -158.832 62.7453 179.308 -0.927464 -17.5194 -37.6584 -61.6832 41.8428 -95.1585 8.75737 19.5431 -27.6624 0.420957 0.000575278 0.35866 -2.11573 6.1245 48.8147 -59.533 -29.7234 98.8041 3.72886 -14.7082 24.5572 0.58676 0.000331133 0.0646651 -53.6618 -1.69772 98.5755 -1.2212 20.3961 -12.8956 4.78287 -5.96891 -0.92588 0.649204 -2.32437 2.35781 -54.4789 2.86971 82.1128 1.77685 15.8672 5.28753 -4.75461 -5.58091 0.965217 -0.259109 2.60155 -0.33939 
-7.29132 98.0562 0.245687 64.7892 -34.2214 -14.9902 -70.1915 0 88.8779 62.6148 68.8782 26.709 4.54077 20.7464 0.55377 -162.902 23.6356 174.639 -158.706 62.73 179.203 -0.920642 -17.4988 -37.6411 -61.674 41.8842 -95.2141 8.70992 19.4775 -27.6414 0.420957 0.000575279 0.35866 -2.12836 6.16301 48.7987 -59.799 -29.7059 98.7421 3.61819 -14.8822 24.4464 0.58676 0.000331133 0.0646651 -53.6369 -1.6873 98.5654 -1.2232 20.3907 -12.8282 4.88759 -5.95965 -0.933553 0.651212 -2.26766 2.18987 -54.4392 2.85371 82.0856 1.80805 15.9055 5.23273 -4.73297 -5.58196 0.963517 -0.259926 2.62737 -0.349798 
-7.27837 98.0565 0.239516 64.7765 -34.1993 -14.9823 -70.1915 0 88.8779 62.4461 68.8431 26.8688 4.61557 20.734 0.565906 -162.882 23.6346 174.601 -158.612 62.7173 179.126 -0.914585 -17.4793 -37.6302 -61.6653 41.9092 -95.2609 8.67613 19.4398 -27.6235 0.420957 0.000575279 0.35866 -2.14179 6.20491 48.7772 -59.9456 -29.7052 98.6948 3.57853 -14.9644 24.4022 0.58676 0.000331133 0.0646651 -53.6121 -1.68522 98.5588 -1.22623 20.4008 -12.8012 4.99172 -5.9684 -0.941778 0.617305 -2.17355 2.12652 -54.4145 2.84377 82.0716 1.82007 15.9312 5.21943 -4.67093 -5.58921 0.958839 -0.255604 2.68729 -0.411777 
-7.26656 98.0602 0.23345 64.7744 -34.1814 -14.9785 -70.1915 0 88.8779 62.3215 68.8297 26.9919 4.6716 20.7413 0.556056 -162.855 23.6335 174.556 -158.568 62.7098 179.093 -0.911456 -17.4694 -37.6242 -61.6608 41.9109 -95.2989 8.65869 19.4428 -27.6069 0.420957 0.000575279 0.35866 -2.14829 6.22553 48.7652 -59.9147 -29.7339 98.673 3.64634 -14.9113 24.4574 0.58676 0.000331133 0.0646651 -53.588 -1.69271 98.5585 -1.23468 20.4314 -12.8408 5.12071 -5.9987 -0.952559 0.51824 -2.00817 2.23841 -54.4116 2.84584 82.0776 1.79952 15.9416 5.29282 -4.4882 -5.61158 0.945068 -0.237953 2.84831 -0.608795 
-7.25597 98.0722 0.228781 64.7762 -34.1659 -14.9796 -70.1915 0 88.8779 62.2068 68.8274 27.1102 4.72321 20.7615 0.531027 -162.829 23.6341 174.512 -158.568 62.7089 179.099 -0.912802 -17.4744 -37.624 -61.6796 41.8962 -95.3207 8.67352 19.5277 -27.5921 0.420957 0.000575278 0.35866 -2.14337 6.21242 48.761 -59.7657 -29.785 98.6707 3.77966 -14.7673 24.5754 0.58676 0.000331133 0.0646651 -53.5602 -1.70673 98.5618 -1.24674 20.478 -12.9195 5.27088 -6.0505 -0.965678 0.367102 -1.77731 2.45856 -54.4221 2.85481 82.0965 1.75855 15.9386 5.42352 -4.22879 -5.64427 0.925557 -0.212795 3.09994 -0.892034 
-7.24581 98.0895 0.22465 64.78 -34.1503 -14.9828 -70.1915 0 88.8779 62.1189 68.8306 27.2019 4.76112 20.7841 0.501395 -162.798 23.634 174.464 -158.574 62.7081 179.112 -0.917144 -17.4888 -37.6301 -61.6995 41.8753 -95.332 8.70254 19.6347 -27.5827 0.420957 0.000575278 0.35866 -2.13198 6.18068 48.7586 -59.5847 -29.8351 98.6678 3.92832 -14.5968 24.7097 0.58676 0.000331133 0.0646651 -53.5305 -1.72678 98.5643 -1.25373 20.533 -12.9991 5.38771 -6.11588 -0.976794 0.21735 -1.55295 2.67815 -54.4365 2.86129 82.1188 1.71805 15.9272 5.53191 -4.04034 -5.67082 0.911549 -0.192707 3.29923 -1.1104 
